<svg xmlns="http://www.w3.org/2000/svg" xmlns:xlink="http://www.w3.org/1999/xlink" xmlns:fi="http://pattern.flaticon.com/" x="0" y="0" width="515" height="477" viewBox="0 0 360.5 333.9"><rect x="0px" y="0px" width="100%" height="100%" opacity="1" fill="#ffffff"/><defs><path d="M385.047,32.474C384.996,15.775,381.533,0,364.781,0c-0.482,0-0.939,0.109-1.407,0.145    c-1.898-0.12-3.879-0.046-6.032,0.505C238.908,30.986,131.387,95.339,36.025,170.424c-5.36,4.223-6.889,9.369-6.025,14.211    c-0.371,2.575-0.599,5.149-0.604,7.759c-0.005,5.86,2.928,11.1,7.343,14.444c0.577,0.785,1.143,1.572,1.887,2.323    c85.564,86.296,185.217,163.39,300.518,204.876c3.747,1.346,7.089,1.382,10.019,0.6c6.87-0.106,13.66-0.63,20.469-1.899    c8.577-1.595,13.787-10.785,13.244-19.058c0.01-0.376,0.106-0.706,0.106-1.092c0-109.187,5.81-218.302,0.624-327.456    C383.26,57.81,385.088,44.889,385.047,32.474z M346.657,378.112c-105.606-38.522-197.16-109.954-276.208-188.668    C152.917,125.7,245.515,71.123,345.865,41.579C353.208,153.66,347.338,265.909,346.657,378.112z" transform="matrix(-0.08376419544219971 0 0 0.08376419544219971 211.70423203527002 88.60787446051836)" id="L1_0" fill="#ec4a81"/><g transform="matrix(0.1171872690320015 0 0 0.1171872690320015 99 200)" id="L1_1"><path d="M457.637,134.681c-29.976,0-54.363,24.387-54.363,54.363c0,10.933,3.255,21.114,8.831,29.647l-58.733,58.733    c-8.534-5.576-18.715-8.831-29.648-8.831c-11.329,0-21.858,3.488-30.576,9.441l-59.338-59.347    c5.575-8.533,8.828-18.713,8.828-29.644c0-29.976-24.387-54.363-54.363-54.363c-29.976,0-54.363,24.387-54.363,54.363    c0,10.931,3.254,21.108,8.827,29.641L84.004,277.42c-8.532-5.574-18.711-8.827-29.641-8.827C24.387,268.593,0,292.981,0,322.957    s24.387,54.363,54.363,54.363c29.976,0,54.363-24.387,54.363-54.363c0-10.933-3.255-21.114-8.831-29.648l58.733-58.733    c8.534,5.576,18.715,8.831,29.648,8.831c10.932,0,21.113-3.255,29.646-8.831l59.666,59.674    c-5.206,8.338-8.226,18.174-8.226,28.706c0,29.976,24.387,54.363,54.363,54.363s54.363-24.387,54.363-54.363    c0-10.931-3.254-21.109-8.827-29.641l58.736-58.736c8.533,5.574,18.712,8.827,29.641,8.827c29.976,0,54.363-24.387,54.363-54.363    C512.001,159.066,487.613,134.681,457.637,134.681z M54.363,354.849c-17.586,0-31.893-14.307-31.893-31.892    c0-17.586,14.307-31.893,31.893-31.893c17.585,0,31.893,14.307,31.893,31.893C86.256,340.542,71.949,354.849,54.363,354.849z     M188.276,220.936c-17.585,0-31.893-14.307-31.893-31.893c0-17.585,14.307-31.893,31.893-31.893    c17.586,0,31.893,14.307,31.893,31.893C220.169,206.629,205.862,220.936,188.276,220.936z M323.724,354.849    c-17.585,0-31.893-14.307-31.893-31.893s14.307-31.893,31.893-31.893c17.585,0,31.893,14.307,31.893,31.893    C355.616,340.542,341.309,354.849,323.724,354.849z M457.637,220.936c-17.585,0-31.893-14.307-31.893-31.893    c0-17.585,14.307-31.893,31.893-31.893c17.585,0,31.893,14.307,31.893,31.893C489.53,206.629,475.222,220.936,457.637,220.936z" fill="#af51bf"/><path d="M176.774,272.717c-4.388-4.387-11.501-4.387-15.889,0l-22.854,22.854c-4.387,4.387-4.387,11.501,0.001,15.889    c2.194,2.194,5.069,3.291,7.944,3.291s5.751-1.098,7.944-3.291l22.854-22.854C181.163,284.219,181.163,277.104,176.774,272.717z" fill="#af51bf"/><path d="M373.962,200.939c-4.388-4.387-11.5-4.387-15.89,0.001l-22.854,22.854c-4.387,4.387-4.387,11.501,0,15.889    c2.195,2.193,5.07,3.29,7.945,3.29c2.876,0,5.75-1.098,7.944-3.291l22.854-22.854C378.349,212.44,378.349,205.326,373.962,200.939    z" fill="#af51bf"/></g></defs><g fi:class="KUsePattern" opacity="0.05"><pattern id="pattern_L1_0" width="350" height="350" patternUnits="userSpaceOnUse"><use xlink:href="#L1_0" x="-350" y="-350"/><use xlink:href="#L1_0" x="0" y="-350"/><use xlink:href="#L1_0" x="350" y="-350"/><use xlink:href="#L1_0" x="-350" y="0"/><use xlink:href="#L1_0" x="0" y="0"/><use xlink:href="#L1_0" x="350" y="0"/><use xlink:href="#L1_0" x="-350" y="350"/><use xlink:href="#L1_0" x="0" y="350"/><use xlink:href="#L1_0" x="350" y="350"/></pattern><rect x="0" y="0" width="100%" height="100%" fill="url(#pattern_L1_0)"/></g><g fi:class="KUsePattern" opacity="0.05"><pattern id="pattern_L1_1" width="350" height="350" patternUnits="userSpaceOnUse"><use xlink:href="#L1_1" x="-350" y="-350"/><use xlink:href="#L1_1" x="0" y="-350"/><use xlink:href="#L1_1" x="350" y="-350"/><use xlink:href="#L1_1" x="-350" y="0"/><use xlink:href="#L1_1" x="0" y="0"/><use xlink:href="#L1_1" x="350" y="0"/><use xlink:href="#L1_1" x="-350" y="350"/><use xlink:href="#L1_1" x="0" y="350"/><use xlink:href="#L1_1" x="350" y="350"/></pattern><rect x="0" y="0" width="100%" height="100%" fill="url(#pattern_L1_1)"/></g></svg>