<svg xmlns="http://www.w3.org/2000/svg" xmlns:xlink="http://www.w3.org/1999/xlink" xmlns:fi="http://pattern.flaticon.com/" x="0" y="0" width="448" height="504" viewBox="0 0 313.59999999999997 352.8"><rect x="0px" y="0px" width="100%" height="100%" opacity="1" fill="#f4fbff"/><defs><g transform="matrix(1.1320754289627075 0 0 1.1320754289627075 34 191)" id="L1_0"><rect x="27px" y="28px" width="2px" height="18px" fill="#424a60"/><rect x="37px" y="2px" width="2px" height="21px" transform="matrix(0.7071 0.7071 -0.7071 0.7071 20.8223 -23.2696)" fill="#424a60"/><rect x="15px" y="21px" width="2px" height="28px" transform="matrix(0.7071 0.7071 -0.7071 0.7071 30.1421 -0.7696)" fill="#424a60"/><rect x="10px" y="13px" width="15px" height="2px" transform="matrix(0.7071 0.7071 -0.7071 0.7071 15.6716 -8.8345)" fill="#424a60"/><rect x="26px" y="32px" width="21px" height="2px" transform="matrix(0.7071 0.7071 -0.7071 0.7071 34.6716 -16.7046)" fill="#424a60"/><circle cx="48" cy="5" r="5" fill="#43b05c"/><circle cx="28" cy="48" r="5" fill="#7383bf"/><circle cx="5" cy="46" r="5" fill="#57d8ab"/><circle cx="12" cy="8" r="3" fill="#d75a4a"/><circle cx="44" cy="40" r="3" fill="#ebba16"/><circle cx="28" cy="24" r="7" fill="#4b6daa"/></g><path d="M26.485,43.39c-2.407,0-4.629-0.832-6.38-2.466c-2.729-2.545-3.581-6.527-2.172-10.146    c1.862-4.779,5.877-8.689,10.63-10.619c-1.466-0.635-3.747-0.799-7.128,0.83c-0.452,0.218-1.107,0.615-1.801,1.036    c-3.514,2.133-10.827,6.57-16.615,0.377c-2.452-2.623-3.481-6.221-2.826-9.871C0.917,8.5,3.522,5.094,7.339,3.185    c1.733-0.863,3.832-0.163,4.696,1.565c0.864,1.729,0.163,3.831-1.565,4.696c-1.822,0.911-3.058,2.487-3.388,4.324    c-0.153,0.855-0.222,2.493,1.051,3.854c1.475,1.581,3.242,1.226,7.871-1.583c0.841-0.51,1.636-0.992,2.39-1.355    c8.958-4.32,15.379-0.856,18.156,3.423c0.184,0.281,0.355,0.582,0.519,0.899c3.444,0.501,6.417,2.261,8.472,5.099    c1.134,1.565,0.783,3.755-0.782,4.889c-1.564,1.135-3.754,0.782-4.888-0.782c-0.294-0.405-0.613-0.746-0.951-1.03    c0.075,2.323-0.168,4.689-0.762,6.775c-1.11,3.899-3.315,6.726-6.378,8.17C29.989,42.972,28.19,43.39,26.485,43.39z     M31.868,26.396c-3.273,1.093-6.169,3.732-7.411,6.924c-0.369,0.945-0.207,1.897,0.423,2.485c0.82,0.765,2.283,0.76,3.912-0.009    c1.493-0.704,2.256-2.432,2.633-3.756C31.942,30.223,32.029,28.191,31.868,26.396z" transform="matrix(-0.518932355793958 0.5189323557939581 -0.5189323557939581 -0.518932355793958 232.6630651675692 279.6051793784803)" id="L1_2" fill="#f5685d"/><path d="M162.929,66.612c-2.814-1.754-6.514-0.896-8.267,1.917s-0.895,6.513,1.917,8.266c6.544,4.081,10.45,11.121,10.45,18.833  s-3.906,14.752-10.45,18.833l-98.417,61.365c-6.943,4.329-15.359,4.542-22.512,0.573c-7.154-3.97-11.425-11.225-11.425-19.406  V34.262c0-8.181,4.271-15.436,11.425-19.406c7.153-3.969,15.569-3.756,22.512,0.573l57.292,35.723  c2.813,1.752,6.513,0.895,8.267-1.917c1.753-2.812,0.895-6.513-1.917-8.266L64.512,5.247c-10.696-6.669-23.661-7-34.685-0.883  C18.806,10.48,12.226,21.657,12.226,34.262v122.73c0,12.605,6.58,23.782,17.602,29.898c5.25,2.913,10.939,4.364,16.616,4.364  c6.241,0,12.467-1.754,18.068-5.247l98.417-61.365c10.082-6.287,16.101-17.133,16.101-29.015S173.011,72.899,162.929,66.612z" transform="matrix(0.08675645178924661 -0.14985204331747282 0.14985204331747282 0.08675645178924661 126.39294267086433 109.00480718048809)" id="L1_3" fill="#1976d2"/><g transform="matrix(0.055242717266082764 0 0 0.055242717266082764 225.8578643798828 121.85786437988281)" id="L1_4"><path d="m197.332031 170.667969h-160c-20.585937 0-37.332031-16.746094-37.332031-37.335938v-96c0-20.585937 16.746094-37.332031 37.332031-37.332031h160c20.589844 0 37.335938 16.746094 37.335938 37.332031v96c0 20.589844-16.746094 37.335938-37.335938 37.335938zm-160-138.667969c-2.941406 0-5.332031 2.390625-5.332031 5.332031v96c0 2.945313 2.390625 5.335938 5.332031 5.335938h160c2.945313 0 5.335938-2.390625 5.335938-5.335938v-96c0-2.941406-2.390625-5.332031-5.335938-5.332031zm0 0" fill="#f5685d"/><path d="m197.332031 512h-160c-20.585937 0-37.332031-16.746094-37.332031-37.332031v-224c0-20.589844 16.746094-37.335938 37.332031-37.335938h160c20.589844 0 37.335938 16.746094 37.335938 37.335938v224c0 20.585937-16.746094 37.332031-37.335938 37.332031zm-160-266.667969c-2.941406 0-5.332031 2.390625-5.332031 5.335938v224c0 2.941406 2.390625 5.332031 5.332031 5.332031h160c2.945313 0 5.335938-2.390625 5.335938-5.332031v-224c0-2.945313-2.390625-5.335938-5.335938-5.335938zm0 0" fill="#f5685d"/><path d="m474.667969 512h-160c-20.589844 0-37.335938-16.746094-37.335938-37.332031v-96c0-20.589844 16.746094-37.335938 37.335938-37.335938h160c20.585937 0 37.332031 16.746094 37.332031 37.335938v96c0 20.585937-16.746094 37.332031-37.332031 37.332031zm-160-138.667969c-2.945313 0-5.335938 2.390625-5.335938 5.335938v96c0 2.941406 2.390625 5.332031 5.335938 5.332031h160c2.941406 0 5.332031-2.390625 5.332031-5.332031v-96c0-2.945313-2.390625-5.335938-5.332031-5.335938zm0 0" fill="#f5685d"/><path d="m474.667969 298.667969h-160c-20.589844 0-37.335938-16.746094-37.335938-37.335938v-224c0-20.585937 16.746094-37.332031 37.335938-37.332031h160c20.585937 0 37.332031 16.746094 37.332031 37.332031v224c0 20.589844-16.746094 37.335938-37.332031 37.335938zm-160-266.667969c-2.945313 0-5.335938 2.390625-5.335938 5.332031v224c0 2.945313 2.390625 5.335938 5.335938 5.335938h160c2.941406 0 5.332031-2.390625 5.332031-5.335938v-224c0-2.941406-2.390625-5.332031-5.332031-5.332031zm0 0" fill="#f5685d"/></g><g transform="matrix(0.04979511350393295 0 0 0.04979511350393295 229.25245094299316 122.25245094299316)" id="L1_5"><path d="m197.332031 0h-160c-20.585937 0-37.332031 16.746094-37.332031 37.332031v96c0 20.589844 16.746094 37.335938 37.332031 37.335938h160c20.589844 0 37.335938-16.746094 37.335938-37.335938v-96c0-20.585937-16.746094-37.332031-37.335938-37.332031zm0 0" fill="#f5685d"/><path d="m197.332031 213.332031h-160c-20.585937 0-37.332031 16.746094-37.332031 37.335938v224c0 20.585937 16.746094 37.332031 37.332031 37.332031h160c20.589844 0 37.335938-16.746094 37.335938-37.332031v-224c0-20.589844-16.746094-37.335938-37.335938-37.335938zm0 0" fill="#1976d2"/><path d="m474.667969 341.332031h-160c-20.589844 0-37.335938 16.746094-37.335938 37.335938v96c0 20.585937 16.746094 37.332031 37.335938 37.332031h160c20.585937 0 37.332031-16.746094 37.332031-37.332031v-96c0-20.589844-16.746094-37.335938-37.332031-37.335938zm0 0" fill="#f5685d"/><path d="m474.667969 0h-160c-20.589844 0-37.335938 16.746094-37.335938 37.332031v224c0 20.589844 16.746094 37.335938 37.335938 37.335938h160c20.585937 0 37.332031-16.746094 37.332031-37.335938v-224c0-20.585937-16.746094-37.332031-37.332031-37.332031zm0 0" fill="#1976d2"/></g></defs><g fi:class="KUsePattern" opacity="0.05"><pattern id="pattern_L1_0" width="350" height="350" patternUnits="userSpaceOnUse"><use xlink:href="#L1_0" x="-350" y="-350"/><use xlink:href="#L1_0" x="0" y="-350"/><use xlink:href="#L1_0" x="350" y="-350"/><use xlink:href="#L1_0" x="-350" y="0"/><use xlink:href="#L1_0" x="0" y="0"/><use xlink:href="#L1_0" x="350" y="0"/><use xlink:href="#L1_0" x="-350" y="350"/><use xlink:href="#L1_0" x="0" y="350"/><use xlink:href="#L1_0" x="350" y="350"/></pattern><rect x="0" y="0" width="100%" height="100%" fill="url(#pattern_L1_0)"/></g><g fi:class="KUsePattern" opacity="0.05"><pattern id="pattern_L1_2" width="350" height="350" patternUnits="userSpaceOnUse"><use xlink:href="#L1_2" x="-350" y="-350"/><use xlink:href="#L1_2" x="0" y="-350"/><use xlink:href="#L1_2" x="350" y="-350"/><use xlink:href="#L1_2" x="-350" y="0"/><use xlink:href="#L1_2" x="0" y="0"/><use xlink:href="#L1_2" x="350" y="0"/><use xlink:href="#L1_2" x="-350" y="350"/><use xlink:href="#L1_2" x="0" y="350"/><use xlink:href="#L1_2" x="350" y="350"/></pattern><rect x="0" y="0" width="100%" height="100%" fill="url(#pattern_L1_2)"/></g><g fi:class="KUsePattern" opacity="0.06"><pattern id="pattern_L1_3" width="350" height="350" patternUnits="userSpaceOnUse"><use xlink:href="#L1_3" x="-350" y="-350"/><use xlink:href="#L1_3" x="0" y="-350"/><use xlink:href="#L1_3" x="350" y="-350"/><use xlink:href="#L1_3" x="-350" y="0"/><use xlink:href="#L1_3" x="0" y="0"/><use xlink:href="#L1_3" x="350" y="0"/><use xlink:href="#L1_3" x="-350" y="350"/><use xlink:href="#L1_3" x="0" y="350"/><use xlink:href="#L1_3" x="350" y="350"/></pattern><rect x="0" y="0" width="100%" height="100%" fill="url(#pattern_L1_3)"/></g><g fi:class="KUsePattern" opacity="0.05"><pattern id="pattern_L1_4" width="350" height="350" patternUnits="userSpaceOnUse"><use xlink:href="#L1_4" x="-350" y="-350"/><use xlink:href="#L1_4" x="0" y="-350"/><use xlink:href="#L1_4" x="350" y="-350"/><use xlink:href="#L1_4" x="-350" y="0"/><use xlink:href="#L1_4" x="0" y="0"/><use xlink:href="#L1_4" x="350" y="0"/><use xlink:href="#L1_4" x="-350" y="350"/><use xlink:href="#L1_4" x="0" y="350"/><use xlink:href="#L1_4" x="350" y="350"/></pattern><rect x="0" y="0" width="100%" height="100%" fill="url(#pattern_L1_4)"/></g><g fi:class="KUsePattern" opacity="0.1"><pattern id="pattern_L1_5" width="350" height="350" patternUnits="userSpaceOnUse"><use xlink:href="#L1_5" x="-350" y="-350"/><use xlink:href="#L1_5" x="0" y="-350"/><use xlink:href="#L1_5" x="350" y="-350"/><use xlink:href="#L1_5" x="-350" y="0"/><use xlink:href="#L1_5" x="0" y="0"/><use xlink:href="#L1_5" x="350" y="0"/><use xlink:href="#L1_5" x="-350" y="350"/><use xlink:href="#L1_5" x="0" y="350"/><use xlink:href="#L1_5" x="350" y="350"/></pattern><rect x="0" y="0" width="100%" height="100%" fill="url(#pattern_L1_5)"/></g></svg>